<?xml version="1.0" encoding="utf-8"?>
<!-- Generator: Adobe Illustrator 23.0.1, SVG Export Plug-In . SVG Version: 6.00 Build 0)  -->
<svg version="1.1" id="Layer_1" xmlns="http://www.w3.org/2000/svg" xmlns:xlink="http://www.w3.org/1999/xlink" x="0px" y="0px"
	 viewBox="0 0 361.7 367" style="enable-background:new 0 0 361.7 367;" xml:space="preserve">
<style type="text/css">
	.st0{fill:#919191;}
	.st1{fill:#282828;}
</style>
<g>
	<g>
		<path class="st0" d="M128.2,284.1l-52.9,28.8c-3.1,1.7-5.9,3.8-8.5,6c30.8,26,70.6,41.6,114,41.6c43.2,0,82.7-15.4,113.4-41.1
			c-2.8-2.4-5.9-4.5-9.3-6.2L228.4,285c-7.3-3.7-11.9-11.1-11.9-19.3v-22.2c1.6-1.8,3.4-4.1,5.4-6.9c7.7-10.9,13.5-22.9,17.6-35.5
			c7.3-2.2,12.6-8.9,12.6-16.9v-23.7c0-5.2-2.3-9.9-5.9-13.2V113c0,0,7.1-53.3-65.2-53.3c-72.2,0-65.2,53.3-65.2,53.3v34.3
			c-3.6,3.3-5.9,7.9-5.9,13.2v23.7c0,6.2,3.3,11.7,8.2,14.9c5.9,25.8,21.4,44.3,21.4,44.3v21.7C139.4,273.1,135.1,280.3,128.2,284.1
			L128.2,284.1z"/>
		<path class="st1" d="M183.9,6.4C86.1,4.7,5.4,82.7,3.8,180.5c-1,55.5,23.7,105.3,63.1,138.4c2.6-2.2,5.3-4.3,8.4-6l52.9-28.8
			c6.9-3.8,11.2-11,11.2-19v-21.6c0,0-15.5-18.6-21.4-44.4c-4.9-3.2-8.2-8.6-8.2-14.9v-23.7c0-5.2,2.3-9.9,5.9-13.1v-34.3
			c0,0-7-53.3,65.2-53.3s65.2,53.3,65.2,53.3v34.3c3.6,3.3,5.9,7.9,5.9,13.1v23.7c0,8-5.4,14.7-12.6,16.9
			c-4,12.6-9.9,24.6-17.6,35.5c-2,2.7-3.8,5.1-5.4,6.9v22.2c0,8.2,4.6,15.7,11.9,19.3l56.6,28.3c3.4,1.7,6.5,3.8,9.3,6.2
			c38.2-31.8,62.8-79.4,63.7-133C359.7,88.7,281.7,8.1,183.9,6.4L183.9,6.4z"/>
	</g>
</g>
</svg>
