<?xml version="1.0" encoding="utf-8"?>
<!-- Generator: Adobe Illustrator 23.0.0, SVG Export Plug-In . SVG Version: 6.00 Build 0)  -->
<svg version="1.1" id="Layer_1" xmlns="http://www.w3.org/2000/svg" xmlns:xlink="http://www.w3.org/1999/xlink" x="0px" y="0px"
	 viewBox="0 0 354 51" style="enable-background:new 0 0 354 51;" xml:space="preserve">
<style type="text/css">
	.st0{fill:#1E1E1E;}
	.st1{fill:#0B0B0B;}
	.st2{fill:#B3B3B3;}
	.st3{font-family:'Avenir-Medium';}
	.st4{font-size:20px;}
	.st5{fill:#999999;}
	.st6{font-family:'Avenir-Light';}
	.st7{font-size:11px;}
	.st8{fill:#4D4D4D;}
	.st9{fill:#333333;}
	.st10{fill:#1A1A1A;}
</style>
<path class="st0" d="M286,49H153c-5,0-9-4-9-9v0c0-5,4-9,9-9h133c5,0,9,4,9,9v0C295,45,291,49,286,49z"/>
<rect x="-43" y="107" class="st1" width="502" height="226"/>
<g>
	<g>
		<path class="st2" d="M235.4,18.9h-6c0.1-0.2,0.1-0.4,0.1-0.6v-0.6h2.8c2,0,3.7-1.6,3.7-3.7c0-1-0.4-1.9-1.1-2.6l-0.4-0.4l0,0
			L231.4,8c0,0,0,0,0,0l-1.6-1.6c-1.8-1.8-4.3-2.9-6.9-2.9h-15.3c-0.3,0-0.6,0.3-0.6,0.6c0,0.3,0.3,0.6,0.6,0.6h15.3
			c2.3,0,4.5,0.9,6.1,2.5l0.6,0.6h-6.5c-1.2,0-2.2,1-2.2,2.2s1,2.2,2.2,2.2h10.8l0.2,0.2c0.5,0.5,0.7,1.1,0.7,1.8
			c0,1.4-1.1,2.5-2.5,2.5h-3.4h-2.3h-13.8h-2.3h-3.1c-0.3,0-0.6,0.3-0.6,0.6s0.3,0.6,0.6,0.6h2.5v0.6c0,0.2,0,0.4,0.1,0.6h-2.6
			c-0.3,0-0.6,0.3-0.6,0.6s0.3,0.6,0.6,0.6h9.5c0.3,0,0.6-0.3,0.6-0.6s-0.3-0.6-0.6-0.6h-3.7c0.1-0.2,0.1-0.4,0.1-0.6v-0.6h12.6v0.6
			c0,0.2,0,0.4,0.1,0.6h-4.7c-0.3,0-0.6,0.3-0.6,0.6s0.3,0.6,0.6,0.6h13.9c0.3,0,0.6-0.3,0.6-0.6S235.7,18.9,235.4,18.9z M223.1,11
			c-0.6,0-1-0.5-1-1s0.5-1,1-1h7.7l2,2H223.1z M212.3,18.3c0,0.3-0.3,0.6-0.6,0.6c-0.3,0-0.6-0.3-0.6-0.6v-0.6h1.1V18.3z
			 M227.2,18.3v-0.6h1.1v0.6c0,0.3-0.3,0.6-0.6,0.6S227.2,18.6,227.2,18.3z"/>
		<path class="st2" d="M219.3,18.9c-0.1,0-0.3,0.1-0.4,0.2c-0.1,0.1-0.2,0.3-0.2,0.4c0,0.1,0.1,0.3,0.2,0.4c0.1,0.1,0.3,0.2,0.4,0.2
			c0.1,0,0.3-0.1,0.4-0.2c0.1-0.1,0.2-0.3,0.2-0.4c0-0.1-0.1-0.3-0.2-0.4S219.5,18.9,219.3,18.9z"/>
		<path class="st2" d="M216.4,11h-8.8c-0.3,0-0.6,0.3-0.6,0.6c0,0.3,0.3,0.6,0.6,0.6h8.8c1.2,0,2.2-1,2.2-2.2s-1-2.2-2.2-2.2h-6.7
			c-0.3,0-0.6,0.3-0.6,0.6s0.3,0.6,0.6,0.6h6.7c0.6,0,1,0.5,1,1S217,11,216.4,11z"/>
		<path class="st2" d="M207.6,7.8c-0.1,0-0.3,0.1-0.4,0.2c-0.1,0.1-0.2,0.3-0.2,0.4s0.1,0.3,0.2,0.4c0.1,0.1,0.3,0.2,0.4,0.2
			c0.1,0,0.3-0.1,0.4-0.2c0.1-0.1,0.2-0.3,0.2-0.4S208.1,8.1,208,8C207.9,7.9,207.7,7.8,207.6,7.8z"/>
	</g>
</g>
<text transform="matrix(1 0 0 1 -0.3335 15.7209)" class="st2 st3 st4">Zürich Airport</text>
<text transform="matrix(1 0 0 1 153.4731 43.322)" class="st5 st6 st7">Travel Time: 40 - 50 minutes</text>
<text transform="matrix(1 0 0 1 316.6665 15.7209)" class="st2 st3 st4">Zug</text>
<circle class="st8" cx="188.5" cy="11.8" r="3.5"/>
<circle class="st9" cx="171.5" cy="11.8" r="2.5"/>
<circle class="st10" cx="155" cy="11.8" r="2"/>
<circle class="st8" cx="254.5" cy="11.8" r="3.5"/>
<circle class="st9" cx="271.5" cy="11.8" r="2.5"/>
<circle class="st10" cx="288" cy="11.8" r="2"/>
<rect x="112" y="-61" class="st5" width="27" height="39"/>
</svg>
