<?xml version="1.0" encoding="utf-8"?>
<!-- Generator: Adobe Illustrator 23.0.0, SVG Export Plug-In . SVG Version: 6.00 Build 0)  -->
<svg version="1.1" id="Layer_1" xmlns="http://www.w3.org/2000/svg" xmlns:xlink="http://www.w3.org/1999/xlink" x="0px" y="0px"
	 viewBox="0 0 315 51" style="enable-background:new 0 0 315 51;" xml:space="preserve">
<style type="text/css">
	.st0{fill:#0B0B0B;}
	.st1{fill:#999999;}
	.st2{fill:#1E1E1E;}
	.st3{fill:#B3B3B3;}
	.st4{font-family:'Avenir-Medium';}
	.st5{font-size:20px;}
	.st6{font-family:'Avenir-Light';}
	.st7{font-size:11px;}
	.st8{fill:#4D4D4D;}
	.st9{fill:#333333;}
	.st10{fill:#1A1A1A;}
</style>
<rect x="-82" y="107" class="st0" width="502" height="226"/>
<rect x="73" y="-61" class="st1" width="27" height="39"/>
<g>
	<path class="st2" d="M247.3,49h-133c-5,0-9-4-9-9l0,0c0-5,4-9,9-9h133c5,0,9,4,9,9l0,0C256.3,45,252.3,49,247.3,49z"/>
	<g>
		<g>
			<path class="st3" d="M196.8,18.9h-6c0.1-0.2,0.1-0.4,0.1-0.6v-0.6h2.8c2,0,3.7-1.6,3.7-3.7c0-1-0.4-1.9-1.1-2.6l-0.4-0.4l0,0
				l-3.2-3l0,0l-1.6-1.6c-1.8-1.8-4.3-2.9-6.9-2.9h-15.3c-0.3,0-0.6,0.3-0.6,0.6s0.3,0.6,0.6,0.6h15.3c2.3,0,4.5,0.9,6.1,2.5
				l0.6,0.6h-6.5c-1.2,0-2.2,1-2.2,2.2s1,2.2,2.2,2.2h10.8l0.2,0.2c0.5,0.5,0.7,1.1,0.7,1.8c0,1.4-1.1,2.5-2.5,2.5h-3.4H188h-13.8
				H172h-3.1c-0.3,0-0.6,0.3-0.6,0.6s0.3,0.6,0.6,0.6h2.5v0.6c0,0.2,0,0.4,0.1,0.6h-2.6c-0.3,0-0.6,0.3-0.6,0.6s0.3,0.6,0.6,0.6h9.5
				c0.3,0,0.6-0.3,0.6-0.6s-0.3-0.6-0.6-0.6h-3.7c0.1-0.2,0.1-0.4,0.1-0.6v-0.6h12.6v0.6c0,0.2,0,0.4,0.1,0.6h-4.7
				c-0.3,0-0.6,0.3-0.6,0.6s0.3,0.6,0.6,0.6h13.9c0.3,0,0.6-0.3,0.6-0.6S197.1,18.9,196.8,18.9z M184.4,11c-0.6,0-1-0.5-1-1
				s0.5-1,1-1h7.7l2,2H184.4z M173.7,18.3c0,0.3-0.3,0.6-0.6,0.6s-0.6-0.3-0.6-0.6v-0.6h1.1v0.6H173.7z M188.6,18.3v-0.6h1.1v0.6
				c0,0.3-0.3,0.6-0.6,0.6S188.6,18.6,188.6,18.3z"/>
			<path class="st3" d="M180.6,18.9c-0.1,0-0.3,0.1-0.4,0.2c-0.1,0.1-0.2,0.3-0.2,0.4s0.1,0.3,0.2,0.4c0.1,0.1,0.3,0.2,0.4,0.2
				c0.1,0,0.3-0.1,0.4-0.2c0.1-0.1,0.2-0.3,0.2-0.4s-0.1-0.3-0.2-0.4S180.8,18.9,180.6,18.9z"/>
			<path class="st3" d="M177.7,11h-8.8c-0.3,0-0.6,0.3-0.6,0.6s0.3,0.6,0.6,0.6h8.8c1.2,0,2.2-1,2.2-2.2s-1-2.2-2.2-2.2H171
				c-0.3,0-0.6,0.3-0.6,0.6S170.7,9,171,9h6.7c0.6,0,1,0.5,1,1S178.3,11,177.7,11z"/>
			<path class="st3" d="M168.9,7.8c-0.1,0-0.3,0.1-0.4,0.2c-0.1,0.1-0.2,0.3-0.2,0.4s0.1,0.3,0.2,0.4c0.1,0.1,0.3,0.2,0.4,0.2
				c0.1,0,0.3-0.1,0.4-0.2c0.1-0.1,0.2-0.3,0.2-0.4s-0.1-0.3-0.2-0.4C169.2,7.9,169,7.8,168.9,7.8z"/>
		</g>
	</g>
	<text transform="matrix(1 0 0 1 0 15.7209)" class="st3 st4 st5">Zürich HB</text>
	<text transform="matrix(1 0 0 1 113.8882 43.322)" class="st1 st6 st7">Travel Time: 20 – 25 minutes</text>
	<text transform="matrix(1 0 0 1 278.0001 15.7209)" class="st3 st4 st5">Zug</text>
	<circle class="st8" cx="149.8" cy="11.8" r="3.5"/>
	<circle class="st9" cx="132.8" cy="11.8" r="2.5"/>
	<circle class="st10" cx="116.3" cy="11.8" r="2"/>
	
		<ellipse transform="matrix(0.1602 -0.9871 0.9871 0.1602 169.5849 222.9231)" class="st8" cx="215.8" cy="11.8" rx="3.5" ry="3.5"/>
	<circle class="st9" cx="232.8" cy="11.8" r="2.5"/>
	<circle class="st10" cx="249.3" cy="11.8" r="2"/>
</g>
</svg>
