<?xml version="1.0" encoding="utf-8"?>
<!-- Generator: Adobe Illustrator 23.0.0, SVG Export Plug-In . SVG Version: 6.00 Build 0)  -->
<svg version="1.1" id="Layer_1" xmlns="http://www.w3.org/2000/svg" xmlns:xlink="http://www.w3.org/1999/xlink" x="0px" y="0px"
	 viewBox="0 0 187 187" style="enable-background:new 0 0 187 187;" xml:space="preserve">
<style type="text/css">
	.st0{fill:#181818;}
	.st1{fill:#CCCCCC;}
	.st2{fill:#FFFFFF;}
</style>
<g>
	<g>
		<circle class="st0" cx="93.5" cy="93.5" r="92"/>
		<path class="st1" d="M93.5,3C143.4,3,184,43.6,184,93.5S143.4,184,93.5,184S3,143.4,3,93.5S43.6,3,93.5,3 M93.5,0
			C41.86,0,0,41.86,0,93.5S41.86,187,93.5,187S187,145.14,187,93.5S145.14,0,93.5,0L93.5,0z"/>
	</g>
	<g>
		<path class="st2" d="M57.07,70.45c0.8,1.46,1.72,3.27,2.77,5.42c1.04,2.15,2.13,4.48,3.27,6.99c1.13,2.51,2.26,5.07,3.37,7.68
			c1.11,2.62,2.16,5.08,3.14,7.38c0.98-2.31,2.02-4.77,3.14-7.38c1.11-2.62,2.23-5.18,3.37-7.68c1.13-2.51,2.22-4.83,3.27-6.99
			c1.04-2.15,1.97-3.96,2.77-5.42h9.45c0.44,3.06,0.85,6.49,1.23,10.28c0.38,3.79,0.71,7.74,1,11.84c0.29,4.1,0.55,8.22,0.8,12.34
			c0.24,4.12,0.45,8.01,0.63,11.64H85.15c-0.13-4.48-0.31-9.36-0.53-14.64c-0.22-5.28-0.56-10.6-1-15.97
			c-0.8,1.86-1.69,3.93-2.67,6.19c-0.98,2.26-1.95,4.52-2.9,6.79c-0.96,2.26-1.88,4.42-2.77,6.49c-0.89,2.06-1.65,3.83-2.27,5.29
			h-7.25c-0.62-1.46-1.38-3.23-2.27-5.29c-0.89-2.06-1.81-4.22-2.77-6.49c-0.96-2.26-1.92-4.52-2.9-6.79
			c-0.98-2.26-1.87-4.32-2.67-6.19c-0.44,5.37-0.78,10.69-1,15.97c-0.22,5.28-0.4,10.16-0.53,14.64H43.5
			c0.18-3.64,0.39-7.52,0.63-11.64c0.24-4.12,0.51-8.24,0.8-12.34c0.29-4.1,0.62-8.05,1-11.84c0.38-3.79,0.79-7.22,1.23-10.28H57.07
			z"/>
		<path class="st2" d="M100.84,92.2h19.29v8.98h-19.29V92.2z"/>
		<path class="st2" d="M121.35,80.03c1.29-0.53,2.63-1.14,4.02-1.83c1.4-0.69,2.76-1.44,4.09-2.26c1.33-0.82,2.6-1.68,3.83-2.59
			c1.22-0.91,2.32-1.87,3.29-2.89h6.92v46.1h-9.91v-33.2c-1.33,0.89-2.82,1.7-4.46,2.43c-1.64,0.73-3.24,1.36-4.79,1.9L121.35,80.03
			z"/>
	</g>
</g>
</svg>
